<?xml version="1.0" encoding="UTF-8" standalone="no"?>
<!-- Created with Inkscape (http://www.inkscape.org/) -->
<svg xmlns:dc="http://purl.org/dc/elements/1.1/" xmlns:cc="http://creativecommons.org/ns#" xmlns:rdf="http://www.w3.org/1999/02/22-rdf-syntax-ns#" xmlns:svg="http://www.w3.org/2000/svg" xmlns="http://www.w3.org/2000/svg" xmlns:sodipodi="http://sodipodi.sourceforge.net/DTD/sodipodi-0.dtd" xmlns:inkscape="http://www.inkscape.org/namespaces/inkscape" version="1.1" width="488.83496" height="131.08051" id="svg2" inkscape:version="0.48.1 " sodipodi:docname="AJAX.svg">
  <sodipodi:namedview pagecolor="#ffffff" bordercolor="#666666" borderopacity="1" objecttolerance="10" gridtolerance="10" guidetolerance="10" inkscape:pageopacity="0" inkscape:pageshadow="2" inkscape:window-width="1280" inkscape:window-height="1004" id="namedview27" showgrid="false" fit-margin-top="0" fit-margin-left="0" fit-margin-right="0" fit-margin-bottom="0" inkscape:zoom="0.98959238" inkscape:cx="257.68185" inkscape:cy="65.540072" inkscape:window-x="-8" inkscape:window-y="-8" inkscape:window-maximized="1" inkscape:current-layer="Camada_x0020_1"/>
  <defs id="defs4">
    <style type="text/css" id="style2989"/>
  </defs>
  <metadata id="metadata7">
    <rdf:RDF>
      <cc:Work rdf:about="">
        <dc:format>image/svg+xml</dc:format>
        <dc:type rdf:resource="http://purl.org/dc/dcmitype/StillImage"/>
        <dc:title/>
      </cc:Work>
    </rdf:RDF>
  </metadata>
  <g transform="translate(-125.17529,-392.53604)" id="layer1">
    <g transform="matrix(3.543307,0,0,3.543307,9.5040098,-33.64549)" id="g3032" style="fill-rule:evenodd">
      <g id="Camada_x0020_1">
        <metadata id="CorelCorpID_0Corel-Layer"/>
        <path d="m 39.0409,131.325 0.7937,2.4694 c 5.5899,-5.4563 16.2027,-2.6929 16.4924,5.9091 0,0 0.1764,15.4341 0.1764,16.1396 0,0.7055 -0.9701,0.9702 -0.9701,0.9702 l -5.3799,-0.0882 c -0.7056,0 -0.7938,-0.882 -0.7938,-0.882 l 0,-13.7584 c 0.4769,-7.2633 -9.1069,-6.3814 -9.7014,0 l 0,14.023 c -0.1844,0.5011 -0.9701,0.6174 -0.9701,0.6174 l -4.5861,0 c -1.8521,0 -1.4111,-0.7056 -1.4111,-0.7056 l 0,-24.6945 6.35,0 z" id="path2993" style="fill:none" inkscape:connector-curvature="0"/>
        <path d="m 75.5535,149.14 6.7028,0.0882 c -0.8823,10.562 -19.4327,10.8266 -22.4897,0.1764 -0.2214,-0.9131 -0.3923,-1.8006 -0.5136,-2.6604 -1.266,-8.9691 2.8434,-14.9343 10.9206,-15.6841 9.1176,-0.3551 13.6449,5.7598 12.9646,15.2577 l -16.6688,-0.0882 c 0.1119,6.0487 7.4616,6.0487 9.0841,2.9104 z" id="path2995" style="fill:none" inkscape:connector-curvature="0"/>
        <path d="m 75.5535,141.467 c -0.1061,-6.1165 -9.1607,-5.7638 -8.9077,0 l 8.9077,0 z" id="path2997" style="fill:none" inkscape:connector-curvature="0"/>
        <polygon points="84.1084,136.263 83.932,131.413 89.3118,131.413 98.2195,143.319 98.2195,144.995 89.4,156.725 84.1084,156.637 84.1084,151.962 90.0174,144.289 " id="polygon2999" style="fill:none"/>
        <polygon points="113.301,136.175 113.477,131.325 108.097,131.325 99.1015,143.231 99.1896,144.907 108.009,156.637 113.301,156.548 113.301,151.874 107.392,144.201 " id="polygon3001" style="fill:none"/>
        <path d="m 126.795,150.816 c -1.0258,0.1394 -1.4962,-0.4486 -1.4111,-1.7639 l 0,-11.9063 5.7326,0 0,-5.7326 -5.8208,0 0,-6.35 -7.232,0 0,6.35 -3.2632,0 0,5.8208 3.2632,0 0.0882,13.141 c 0.6059,3.9485 3.1048,6.1828 5.909,6.4383 l 6.8792,0.0882 0,-6.0855 -4.1451,0 z" id="path3003" style="fill:none" inkscape:connector-curvature="0"/>
        <path d="m 148.711,149.096 6.7028,0.0882 c -0.8823,10.562 -19.4327,10.8266 -22.4897,0.1764 -0.2214,-0.9131 -0.3923,-1.8006 -0.5136,-2.6604 -1.266,-8.9691 2.8434,-14.9343 10.9206,-15.6841 9.1176,-0.3551 13.6449,5.7598 12.9646,15.2577 l -16.6688,-0.0882 c 0.1119,6.0487 7.4616,6.0487 9.0841,2.9104 z" id="path3005" style="fill:none" inkscape:connector-curvature="0"/>
        <path d="m 148.714,141.402 c -0.1061,-6.1165 -9.1607,-5.7638 -8.9077,0 l 8.9077,0 z" id="path3007" style="fill:none" inkscape:connector-curvature="0"/>
        <path d="m 170.606,150.926 -3.0868,0 c -0.8992,-0.1651 -1.4284,-0.7237 -1.5875,-1.6757 l 0.044,-28.9717 -7.1878,0.0441 0.1323,29.104 c 0.0102,4.2079 2.4209,6.6774 5.6004,7.4084 l 6.0854,0 0,-5.9091 z" id="path3009" style="fill:none" inkscape:connector-curvature="0"/>
        <path d="m 39.6582,142.084 c 0.5945,-6.3814 10.1783,-7.2633 9.7014,0 l 0,13.7584 c 0,0 0.0882,0.882 0.7938,0.882 l 5.3799,0.0882 c 0,0 0.9701,-0.2647 0.9701,-0.9702 0,-0.7055 -0.1764,-16.1396 -0.1764,-16.1396 -0.2897,-8.602 -10.9025,-11.3654 -16.4924,-5.9091 l -0.7937,-2.4694 -6.35,0 0,24.6945 c 0,0 -0.441,0.7056 1.4111,0.7056 l 4.5861,0 c 0,0 0.7857,-0.1163 0.9701,-0.6174 l 0,-14.023 z" id="path3013" style="fill:#e05206;stroke:none" inkscape:connector-curvature="0"/>
        <path d="m 70.1736,131.06 c -8.0772,0.7498 -12.1866,6.715 -10.9206,15.6841 0.1213,0.8598 0.2922,1.7473 0.5136,2.6604 3.057,10.6502 21.6074,10.3856 22.4897,-0.1764 l -6.7028,-0.0882 c -1.6225,3.1383 -8.9722,3.1383 -9.0841,-2.9104 l 16.6688,0.0882 c 0.6803,-9.4979 -3.847,-15.6128 -12.9646,-15.2577 z m -3.5278,10.407 c -0.253,-5.7638 8.8016,-6.1165 8.9077,0 l -8.9077,0 z" id="path3015" style="fill:#e05206;stroke:none" inkscape:connector-curvature="0"/>
        <path style="fill:#e05206;stroke:none" d="m 98.2195,143.319 -8.9077,-11.906 -5.3798,0 0.1764,4.85 5.909,8.026 -5.909,7.673 0,4.675 5.2916,0.088 8.8195,-11.73 z" id="polygon3017" inkscape:connector-curvature="0"/>
        <path style="fill:#e05206;stroke:none" d="m 107.392,144.201 5.909,-8.026 0.176,-4.85 -5.38,0 -8.9955,11.906 0.0881,1.676 8.8194,11.73 5.292,-0.089 0,-4.674 z" id="polygon3019" inkscape:connector-curvature="0"/>
        <path d="m 114.8,131.413 0,5.8208 3.2632,0 0.0882,13.141 c 0.6059,3.9485 3.1048,6.1828 5.909,6.4383 l 6.8792,0.0882 0,-6.0855 -4.1451,0 c -1.0258,0.1394 -1.4962,-0.4486 -1.4111,-1.7639 l 0,-11.9063 5.7326,0 0,-5.7326 -5.8208,0 0,-6.35 -7.232,0 0,6.35 -3.2632,0 z" id="path3021" style="fill:#e05206;stroke:none" inkscape:connector-curvature="0"/>
        <path d="m 143.331,131.016 c -8.0772,0.7498 -12.1866,6.715 -10.9206,15.6841 0.1213,0.8598 0.2922,1.7473 0.5136,2.6604 3.057,10.6502 21.6074,10.3856 22.4897,-0.1764 l -6.7028,-0.0882 c -1.6225,3.1383 -8.9722,3.1383 -9.0841,-2.9104 l 16.6688,0.0882 c 0.6803,-9.4979 -3.847,-15.6128 -12.9646,-15.2577 z m -3.5251,10.3862 c -0.253,-5.7638 8.8016,-6.1165 8.9077,0 l -8.9077,0 z" id="path3023" style="fill:#e05206;stroke:none" inkscape:connector-curvature="0"/>
        <path d="m 158.787,120.322 0.1323,29.104 c 0.0102,4.2079 2.4209,6.6774 5.6004,7.4084 l 6.0854,0 0,-5.9091 -3.0868,0 c -0.8992,-0.1651 -1.4284,-0.7237 -1.5875,-1.6757 l 0.044,-28.9717 -7.1878,0.0441 z" id="path3025" style="fill:#e05206;stroke:none" inkscape:connector-curvature="0"/>
      </g>
    </g>
  </g>
</svg>